<?xml version="1.0" encoding="utf-8"?>
<!-- Generator: Adobe Illustrator 22.0.0, SVG Export Plug-In . SVG Version: 6.00 Build 0)  -->
<svg version="1.1" id="Layer_1" xmlns="http://www.w3.org/2000/svg" xmlns:xlink="http://www.w3.org/1999/xlink" x="0px" y="0px"
	 viewBox="0 0 216 72" style="enable-background:new 0 0 216 72;" xml:space="preserve">
<style type="text/css">
	.st0{fill:#FFFFFF;}
</style>
<g id="XMLID_1_">
	<g id="XMLID_20_">
		<path id="XMLID_31_" class="st0" d="M77.2,29.6L77.2,29.6c0-6.7,4.8-12.8,12.1-12.8c4,0,6.5,1.2,9,3.2l-1.2,1.4
			c-1.9-1.7-4.2-2.9-7.9-2.9c-6,0-10.1,5.1-10.1,11v0.1c0,6.4,4,11.1,10.5,11.1c3.1,0,6-1.3,7.8-2.8v-7.1h-8.2v-1.7h10v9.5
			c-2.2,2-5.6,3.7-9.7,3.7C81.8,42.3,77.2,36.6,77.2,29.6z"/>
		<path id="XMLID_28_" class="st0" d="M105.8,17.3h10.3c3,0,5.4,0.9,6.9,2.4c1.2,1.2,1.9,2.8,1.9,4.6v0.1c0,4.1-3.1,6.5-7.2,7
			l8.1,10.5h-2.3l-7.8-10.2h-0.1h-8v10.2h-1.8V17.3z M116,30.1c4.1,0,7.2-2.1,7.2-5.6v-0.1c0-3.3-2.6-5.4-7.1-5.4h-8.4v11.1H116z"/>
		<path id="XMLID_25_" class="st0" d="M140.6,17.1h1.8l11.4,24.7h-2l-3.1-6.9h-14.5l-3.1,6.9h-1.9L140.6,17.1z M147.9,33.3
			l-6.5-14.2l-6.5,14.2H147.9z"/>
		<path id="XMLID_23_" class="st0" d="M156.5,29.6L156.5,29.6c0-7,5.2-12.8,12.3-12.8c4.4,0,7,1.6,9.5,3.9l-1.3,1.4
			c-2.1-2.1-4.6-3.6-8.3-3.6c-5.9,0-10.4,4.8-10.4,11v0.1c0,6.2,4.5,11.1,10.4,11.1c3.5,0,6-1.4,8.5-3.8l1.2,1.2
			c-2.6,2.6-5.4,4.3-9.8,4.3C161.7,42.3,156.5,36.8,156.5,29.6z"/>
		<path id="XMLID_21_" class="st0" d="M183.5,17.3H201V19h-15.7v9.7h14.1v1.7h-14.1v9.8h15.8v1.7h-17.7L183.5,17.3L183.5,17.3z"/>
	</g>
	<g id="XMLID_3_">
		<path id="XMLID_18_" class="st0" d="M101.1,48.8h5.8v0.6h-5.2v3.2h4.6v0.5h-4.6v3.3h5.2V57h-5.8V48.8z"/>
		<path id="XMLID_16_" class="st0" d="M110.6,48.8h0.7l2.6,7.2l2.4-7.2h0.5l2.4,7.2l2.6-7.2h0.6l-2.9,8.2H119l-2.4-7l-2.4,7h-0.5
			L110.6,48.8z"/>
		<path id="XMLID_13_" class="st0" d="M125.6,52.8L125.6,52.8c0-2.2,1.6-4.2,4.1-4.2s4.1,2,4.1,4.2l0,0c0,2.2-1.6,4.2-4.1,4.2
			S125.6,55.2,125.6,52.8z M133.1,52.8L133.1,52.8c0-2-1.5-3.7-3.5-3.7s-3.4,1.6-3.4,3.6l0,0c0,2,1.5,3.7,3.5,3.7
			C131.7,56.6,133.1,54.8,133.1,52.8z"/>
		<path id="XMLID_11_" class="st0" d="M138.1,48.8h0.6v5.3l5.2-5.3h0.8l-3.5,3.6l3.7,4.5h-0.8l-3.3-4.1l-2,2v2.1h-0.6L138.1,48.8
			L138.1,48.8z"/>
		<path id="XMLID_8_" class="st0" d="M151.9,48.8h0.6l3.8,8.2h-0.7l-1-2.3h-4.8l-1,2.3h-0.6L151.9,48.8z M154.3,54.2l-2.1-4.7
			l-2.2,4.7H154.3z"/>
		<path id="XMLID_6_" class="st0" d="M160.3,48.8h0.6v5.3l5.2-5.3h0.8l-3.5,3.6l3.7,4.5h-0.8l-3.3-4.1l-2,2v2.1h-0.6L160.3,48.8
			L160.3,48.8z"/>
		<path id="XMLID_4_" class="st0" d="M170.7,53.6v-4.7h0.6v4.7c0,1.9,1,3,2.7,3c1.6,0,2.7-1,2.7-3v-4.7h0.6v4.7
			c0,2.3-1.4,3.6-3.3,3.6C172,57.1,170.7,55.8,170.7,53.6z"/>
	</g>
</g>
<g id="XMLID_372_">
	<path id="XMLID_377_" class="st0" d="M62.6,36.4c-0.5,0.4-1,0.7-1.5,1c-2.4,1.3-5.2,1.5-7.8,0.6c-0.5-0.4-1.1-0.7-1.7-1
		c1.7-0.2,3.2-0.9,4.6-1.9c0.4-0.3,0.7-0.6,1-0.9C59,32.4,60,30,60,27.5v-0.2l-0.1,0.2c-0.3,0.5-0.7,1-1.2,1.4
		c-1.9,1.9-4.5,2.9-7.2,2.8c-0.8-0.3-1.6-0.4-2.5-0.5c-0.1,0-0.1,0-0.2,0c1.5-0.7,2.7-1.8,3.6-3.1c0.3-0.4,0.5-0.8,0.7-1.2
		c1.1-2.3,1.4-4.8,0.6-7.2l-0.1-0.2l-0.1,0.2c-0.2,0.6-0.4,1.2-0.7,1.7c-1.2,2.4-3.4,4.2-6,4.9c-0.8,0-1.7,0.1-2.5,0.3
		c-2.2,0.6-4.1,1.9-5.4,3.8c-0.3,0.4-0.5,0.8-0.7,1.2c-0.5,1.1-0.9,2.2-1,3.3c-0.1-1.1-0.5-2.2-1-3.2c-0.2-0.4-0.4-0.8-0.7-1.2
		c-1.3-1.8-3.2-3.2-5.4-3.8c-0.8-0.2-1.7-0.3-2.5-0.3c-2.6-0.7-4.8-2.5-6-4.9c-0.3-0.5-0.5-1.1-0.7-1.7l0.1-0.1l-0.1,0.2
		c-0.8,2.4-0.5,5,0.6,7.2c0.2,0.4,0.4,0.8,0.7,1.2c0.9,1.3,2.2,2.4,3.6,3.1c-0.1,0-0.1,0-0.2,0c-0.8,0-1.7,0.2-2.5,0.5
		C20.5,32,17.9,31,16,29.1c-0.4-0.4-0.8-0.9-1.2-1.4l-0.1-0.2v0.2c0,2.5,1,4.9,2.8,6.7c0.3,0.3,0.7,0.6,1,0.9c1.3,1,2.9,1.6,4.6,1.9
		c-0.6,0.3-1.2,0.6-1.7,1c-2.5,0.9-5.4,0.7-7.8-0.6c-0.5-0.3-1.1-0.6-1.5-1l-0.2-0.1l0.1,0.2c0.8,2.4,2.4,4.4,4.6,5.6
		c0.4,0.2,0.8,0.4,1.3,0.6c2,0.7,4.3,0.8,6.3,0.1c0.7-0.2,1.4-0.6,2.1-1c2.5-0.8,5.2-0.6,7.5,0.7c0.2,0.1,0.3,0.2,0.5,0.3
		c0,0.1-0.1,0.2-0.1,0.2c-0.2,0.4-0.3,0.8-0.4,1.2c-0.1,0.4-0.1,0.8,0,1.1c0,0.4,0.1,0.8,0.3,1.1c0.1,0.8,0,1.5-0.4,2.2
		c-0.8,1.6-2.6,2.5-4.3,2.2h-0.2l0.2,0.1c0.3,0.3,0.6,0.5,1,0.7c0.6,0.3,1.2,0.4,1.8,0.4c1.6,0,3.1-0.9,3.8-2.4
		c0.2-0.4,0.3-0.8,0.4-1.2c0.1-0.7,0-1.5-0.2-2.2c-0.1-0.3-0.3-0.6-0.5-0.9c-0.3-0.7-0.3-1.4-0.2-2c0.3,0.3,0.7,0.6,1,0.9l0.1,0.1
		v-0.2c-0.1-0.8-0.3-1.5-0.6-2.2c0,0,0,0,0-0.1c0.3-0.5,0.6-0.9,1-1.2l0.2-0.2l-0.3,0.1c-0.3,0.1-0.6,0.2-0.9,0.4
		c0-2.6-0.9-5-2.8-6.9c-0.2-0.2-0.3-0.3-0.5-0.5c1.2,0.9,2.2,2,2.9,3.4c0.5,0.9,0.8,2,0.9,3v0.2l0.1-0.2c0.5-1,0.7-2,0.8-3
		c0.1,1,0.4,2,0.8,3l0.1,0.2v-0.2c0.1-1,0.5-2.1,0.9-3c0.7-1.4,1.7-2.5,2.9-3.4c-0.2,0.2-0.3,0.3-0.5,0.5c-1.9,1.9-2.8,4.4-2.8,7
		c-0.3-0.2-0.6-0.3-0.9-0.4l-0.3-0.1l0.2,0.2c0.4,0.3,0.8,0.8,1,1.2c-0.3,0.7-0.5,1.4-0.6,2.2v0.2l0.1-0.1c0.3-0.3,0.6-0.6,1-0.9
		c0.1,0.7,0,1.4-0.2,2.1c-0.2,0.3-0.3,0.6-0.5,0.9c-0.3,0.7-0.3,1.4-0.2,2.2c0.1,0.4,0.2,0.8,0.4,1.2c0.5,1,1.3,1.8,2.4,2.1
		c0.5,0.2,0.9,0.2,1.4,0.2c0.6,0,1.2-0.1,1.8-0.4c0.4-0.2,0.7-0.4,1-0.7l0.2-0.1h-0.2c-1.8,0.3-3.5-0.6-4.3-2.2
		c-0.3-0.7-0.5-1.5-0.4-2.2c0.2-0.4,0.3-0.7,0.3-1.1c0-0.4,0-0.8,0-1.1c-0.1-0.4-0.2-0.8-0.4-1.2c0-0.1-0.1-0.2-0.2-0.3
		c0.2-0.1,0.3-0.2,0.5-0.3c2.3-1.3,5-1.5,7.5-0.7c0.7,0.4,1.4,0.7,2.1,1c2.1,0.7,4.3,0.7,6.3-0.1c0.4-0.2,0.9-0.4,1.3-0.6
		C60.3,40.9,62,38.9,62.6,36.4l0.2-0.1L62.6,36.4z"/>
	<g id="XMLID_373_">
		<path id="XMLID_374_" class="st0" d="M37.4,64.8c-7.7,0-14.9-3-20.4-8.4S8.6,43.7,8.6,36s3-14.9,8.4-20.4s12.7-8.4,20.4-8.4
			s14.9,3,20.4,8.4s8.4,12.7,8.4,20.4s-3,14.9-8.4,20.4S45.1,64.8,37.4,64.8z M37.4,8.3C22.2,8.3,9.8,20.7,9.8,36
			s12.4,27.7,27.7,27.7S65.2,51.3,65.2,36C65.1,20.7,52.7,8.3,37.4,8.3z"/>
	</g>
</g>
</svg>
